<svg width="44" height="44" viewBox="0 0 44 44" fill="none" xmlns="http://www.w3.org/2000/svg">
<rect width="44" height="44" fill="#CBD5E1" fill-opacity="0.12"/>
<path fill-rule="evenodd" clip-rule="evenodd" d="M22.0001 40.3333C13.3577 40.3333 9.03646 40.3333 6.35161 37.6484C3.66675 34.9637 3.66675 30.6423 3.66675 22C3.66675 13.3576 3.66675 9.03636 6.35161 6.35152C9.03646 3.66666 13.3577 3.66666 22.0001 3.66666C30.6424 3.66666 34.9638 3.66666 37.6485 6.35152C40.3334 9.03636 40.3334 13.3576 40.3334 22C40.3334 30.6423 40.3334 34.9637 37.6485 37.6484C34.9638 40.3333 30.6424 40.3333 22.0001 40.3333ZM22.0001 15.125C22.7595 15.125 23.3751 15.7406 23.3751 16.5V20.625H27.5001C28.2595 20.625 28.8751 21.2406 28.8751 22C28.8751 22.7594 28.2595 23.375 27.5001 23.375H23.3751V27.5C23.3751 28.2594 22.7595 28.875 22.0001 28.875C21.2407 28.875 20.6251 28.2594 20.6251 27.5V23.375H16.5001C15.7407 23.375 15.1251 22.7594 15.1251 22C15.1251 21.2406 15.7407 20.625 16.5001 20.625H20.6251V16.5C20.6251 15.7406 21.2407 15.125 22.0001 15.125Z" fill="#1E293B"/>
</svg>
