<svg width="61" height="61" viewBox="0 0 61 61" fill="none" xmlns="http://www.w3.org/2000/svg">
<path d="M14.6146 2.54166C15.6674 2.54166 16.5209 3.39512 16.5209 4.44791V9.14999L20.8942 8.27533C25.0893 7.4363 29.4379 7.83554 33.41 9.42441L33.9277 9.63146C37.8955 11.2186 42.2629 11.515 46.4088 10.4785C48.3336 9.99736 50.198 11.4531 50.198 13.437V32.1615C50.198 33.7991 49.0834 35.2265 47.4946 35.6237L46.9497 35.76C42.452 36.8844 37.7146 36.5629 33.41 34.8412C29.4379 33.2521 25.0893 32.8531 20.8942 33.6921L16.5209 34.5667V55.2812C16.5209 56.334 15.6674 57.1875 14.6146 57.1875C13.5618 57.1875 12.7084 56.334 12.7084 55.2812V4.44791C12.7084 3.39512 13.5618 2.54166 14.6146 2.54166Z" fill="#F8FAFC"/>
</svg>
